<svg xmlns="http://www.w3.org/2000/svg" viewBox="0 0 449.978 489.315" height="490" width="450"><path d="M11.141 178.27c.686-2.401 1.71-4.63 2.04-7.144 1.015-7.718-.013-15.504.946-23.283 2.53-20.532 9.412-41.481 23.76-56.886 7.628-8.189 16.72-14.304 26.964-18.71 3.324-1.43 6.83-2.53 10.32-3.475 2.039-.552 4.58-.947 5.974-2.697 1.752-2.198 1.125-6.8 1.546-9.513.86-5.548 2.803-10.865 5.824-15.61 4.81-7.559 12.128-13.14 19.728-17.675 14.136-8.436 29.772-13.366 46.302-14.076-1.747-6.066-9.465-7.155-14.817-8.202-15.44-3.019-32.087 1.054-45.508 8.844-9.99 5.797-18.727 14.099-24.378 24.229-1.397 2.504-2.789 5.2-3.66 7.938-.767 2.41-.978 5.155-2.74 7.119-2.981 3.319-9.644 4.118-13.672 5.845-7.247 3.108-13.93 7.588-19.844 12.776-23.38 20.508-33.23 54.72-27.464 84.855 1.262 6.596 2.952 13.067 5.451 19.315.756 1.89 1.473 5.2 3.228 6.35M213.018.47c.089 4.292 1.28 8.728 1.96 12.965 1.17 7.281 2.205 14.597 2.528 21.96 1.005 22.959-8.642 46.592-27.507 60.213-31.646 22.85-74.235 12.472-106.627 34.067-11.707 7.805-20.913 21.478-22.503 35.63-.557 4.964-.456 10.434 1.601 15.082 2.833-1.348 2.872-3.642 3.71-6.35 1.075-3.47 2.392-6.912 4.23-10.055 5.326-9.102 13.456-15.422 23.016-19.615 31.082-13.633 67.605-8.003 97.896-24.387 31.547-17.063 45.07-56.052 36.611-89.877-1.916-7.663-5.027-14.93-9.094-21.696-1.601-2.663-3.393-5.96-5.82-7.937M166.45 306.593c-.221 5.154-4.917 8.141-8.178 11.642-7.773 8.345-15.876 16.414-23.527 24.87-26.212 28.97-54.31 56.227-80.523 85.196-5.818 6.43-11.908 12.616-17.727 19.05-4.91 5.427-9.793 10.388-10.727 17.992-1.988 16.182 15.868 29.75 30.351 21.466 3.68-2.107 6.56-5.271 9.525-8.237a409.43 409.43 0 0014.068-14.817c12.493-13.806 25.441-27.289 38.31-40.745 29.146-30.483 57.806-61.482 86.552-92.34 34.693-37.243 70.035-73.882 104.728-111.125 19.976-21.445 39.88-43.05 60.346-64.03 15.541-15.933 30.625-32.394 45.8-48.683 9.537-10.24 20.383-19.896 28.966-30.956 8.657-11.152 7.739-28.278-6.501-34.696-7.565-3.41-15.722-.97-21.96 4.006-10.518 8.386-18.82 19.857-28.31 29.367-11.092 11.114-21.602 22.907-32.304 34.396-17.555 18.847-35.311 37.509-52.869 56.356-7.062 7.581-14.02 15.266-21.18 22.755-5.196 5.434-9.935 10.786-17.473 12.77-4.567 1.202-9.116.723-13.758.723-7.681 0-15.357-.073-23.019-.26-21.637-.53-43.472-.273-65.088.256-6.517.16-13.059.004-19.579.004-6.694 0-13.888.437-19.314 4.886-6.138 5.03-7.409 13.306-7.409 20.779v48.948c0 8.734.067 18.507 7.144 24.826 4.257 3.8 9.872 4.852 15.346 5.381 9.3.9 18.96.22 28.31.22M427.86 51.614c5.768-.851 11.03 5.549 10.24 11.033-.533 3.697-3.313 6.891-5.766 9.525-20.62 22.136-42.087 43.48-62.706 65.617-52.213 56.051-105.433 111.167-157.645 167.216-24.915 26.747-49.892 53.486-75.155 79.905-12.68 13.26-24.91 26.955-37.591 40.216-9.354 9.782-19.06 19.193-28.276 29.104-5.028 5.406-9.535 11.232-14.21 16.934-2.575 3.143-5.522 6.286-9.891 6.075-6.526-.318-11.104-8.324-8.253-14.013 2.28-4.545 6.859-8.31 10.365-11.906 5.489-5.625 10.81-11.446 16.168-17.198 16.49-17.703 33.469-34.949 49.958-52.652 11.976-12.856 23.88-25.91 36.272-38.365 7.673-7.71 15.379-15.65 22.565-23.812 3.105-3.527 6.897-7.625 6.77-12.7-.202-8.083-6.613-11.896-13.989-11.906-7.408-.011-14.817 0-22.225 0-4.132 0-8.467.534-12.17-1.68-5.74-3.432-5.028-11.359-5.028-17.106v-38.894c0-5.663-1.212-13.036 1.423-18.256 1.8-3.567 5.464-4.835 9.16-5.363 8.261-1.18 17.317-.193 25.665-.193 22.85 0 45.695-.265 68.527-.265 6.536 0 13.06-.01 19.58.275 4.788.21 9.544.577 14.287-.45 11.165-2.418 18.529-10.32 25.738-18.61 4.662-5.359 9.398-10.678 14.238-15.875 28.053-30.13 56.179-60.203 84.632-89.958 8.705-9.103 17.042-18.602 25.94-27.517 3.185-3.192 6.55-8.468 11.377-9.18M19.343 201.664c-8.53 1.162-14.952 7.2-17.706 15.234-2.572 7.502-1.344 16.528-1.344 24.342v30.162c0 5.818-.652 12.063.906 17.727 2.57 9.343 11.343 18.643 21.848 17.386 8.676-1.037 15.49-7.369 18.255-15.534 2.75-8.12 1.426-17.772 1.325-26.193-.12-10.07.264-20.104.264-30.163 0-6.069.257-12.677-1.595-18.52-2.974-9.384-12.021-15.792-21.953-14.44m57.15 0c-8.46 1.213-14.45 7.235-16.927 15.233-1.916 6.191-1.33 12.917-1.33 19.315v31.485c0 7.895-1.13 16.817 1.7 24.342 3.564 9.472 12.515 15.578 22.642 14.21 8.725-1.177 14.746-8.64 16.557-16.856 1.188-5.387.641-11.184.641-16.669v-28.31c0-9.074 1.452-19.565-1.33-28.31-2.975-9.352-12.021-15.862-21.953-14.44m.53 12.138c6.784-1.002 10.558 3.875 10.837 10.239.758 17.304.275 34.802.275 52.123 0 5.884 1.111 16.732-6.88 17.912-7.053 1.043-10.823-4.68-11.102-11.033-.75-17.124-.01-34.45-.01-51.594 0-5.842-1.145-16.462 6.88-17.647m-56.092.264c8.578-1.237 9.79 6.736 9.79 13.414 0 16.474.264 32.983.264 49.478 0 6.289.624 15.658-7.673 16.853-6.973 1.006-10.645-4.03-11.089-10.503-1.206-17.593-.288-35.54-.288-53.182 0-6.673.746-14.87 8.996-16.06m343.164.346c-2.233.507-3.574 3.334-5.038 4.866a1522.996 1522.996 0 00-12.977 13.759c-15.605 16.753-31.756 33.028-47.117 50.006-4.453 4.921-9.05 9.832-13.714 14.552-1.762 1.78-4.614 4.008-3.437 6.88.913 2.222 3.276 2.116 5.29 2.116h56.356c6.32 0 14.263 1.286 20.373-.394 6.807-1.87 4.762-12.296 4.762-17.598v-55.033c0-4.91.751-10.527-.214-15.346-.392-1.954-1.937-4.34-4.284-3.808m-7.144 24.975v39.952c0 3.564 1.482 11.551-1.378 14.184-3.202 2.942-11.335 1.455-15.29 1.185-11.613-.796-23.548-.023-35.19-.023l10.295-11.113 19.05-20.373 15.094-16.14z" fill="#ed1f24"/></svg>